<svg width="25" height="23" viewBox="0 0 25 23" fill="none" xmlns="http://www.w3.org/2000/svg">
<path fill-rule="evenodd" clip-rule="evenodd" d="M22.6798 22.2069V19.7304C23.2022 19.4223 23.5083 18.8472 23.4723 18.2414C23.4723 17.3654 22.9402 16.6552 22.2836 16.6552C21.6269 16.6552 21.0949 17.3654 21.0949 18.2414C21.0589 18.8472 21.365 19.4223 21.8873 19.7304V22.2069H19.1137V10.1589L16.7363 8.96927V11.1034H17.925V11.8966H16.7363V13.4828H17.925V14.2759H16.7363V15.8621H17.925V16.6552H16.7363V18.2414H17.925V19.0345H16.7363V20.6207H17.925V21.4138H16.7363V22.2069H15.9438V6.24724L11.189 4.88796V6.34483H13.9627V7.13793H11.189V8.72414H13.9627V9.51724H11.189V11.1034H13.9627V11.8966H11.189V13.4828H13.9627V14.2759H11.189V15.8621H13.9627V16.6552H11.189V18.2414H13.9627V19.0345H11.189V20.6207H13.9627V21.4138H11.189V22.2069H10.3966V0H3.26436V1.58621H6.83047V2.37931H3.26436V3.96552H6.83047V4.75862H3.26436V6.34483H6.83047V7.13793H3.26436V8.72414H6.83047V9.51724H3.26436V11.1034H6.83047V11.8966H3.26436V13.4828H6.83047V14.2759H3.26436V15.8621H6.83047V16.6552H3.26436V18.2414H6.83047V19.0345H3.26436V20.6207H6.83047V21.4138H3.26436V22.2069H0.886963V23H24.661V22.2069H22.6798Z" fill="#EF6039"/>
</svg>
